<svg xmlns="http://www.w3.org/2000/svg" xmlns:xlink="http://www.w3.org/1999/xlink" width="304" zoomAndPan="magnify" viewBox="0 0 228 227.999995" height="304" preserveAspectRatio="xMidYMid meet" version="1.0"><defs><clipPath id="8f1455bd6f"><path d="M 2.585938 2.585938 L 226.085938 2.585938 L 226.085938 226.085938 L 2.585938 226.085938 Z M 2.585938 2.585938 " clip-rule="nonzero"/></clipPath><clipPath id="084c43f6db"><path d="M 79 34 L 175 34 L 175 226.085938 L 79 226.085938 Z M 79 34 " clip-rule="nonzero"/></clipPath><clipPath id="9f829cf12c"><path d="M 72 27 L 182 27 L 182 226.085938 L 72 226.085938 Z M 72 27 " clip-rule="nonzero"/></clipPath></defs><rect x="-22.8" width="273.6" fill="#ffffff" y="-22.8" height="273.599994" fill-opacity="1"/><rect x="-22.8" width="273.6" fill="#ffffff" y="-22.8" height="273.599994" fill-opacity="1"/><g clip-path="url(#8f1455bd6f)"><path stroke-linecap="butt" transform="matrix(0.50221, 0, 0, 0.50221, -6.328273, -3.390351)" fill-opacity="1" fill="#1877f2" fill-rule="nonzero" stroke-linejoin="miter" d="M 462.697804 234.603356 C 462.697804 238.235741 462.612244 241.868127 462.433347 245.500513 C 462.25445 249.132899 461.989994 252.757507 461.6322 256.382114 C 461.274406 259.998944 460.831053 263.607995 460.294362 267.201491 C 459.757671 270.802764 459.143199 274.380703 458.427611 277.950864 C 457.719802 281.513246 456.926433 285.060073 456.039726 288.591343 C 455.160798 292.114835 454.188532 295.622771 453.130706 299.099594 C 452.072881 302.584196 450.937274 306.029906 449.70833 309.460061 C 448.487164 312.882437 447.180438 316.273701 445.788153 319.633852 C 444.395868 322.994004 442.918024 326.315264 441.370176 329.605413 C 439.814551 332.887783 438.173366 336.13904 436.462177 339.343629 C 434.750989 342.548218 432.954242 345.713916 431.087491 348.832945 C 429.22074 351.951975 427.276208 355.024335 425.253895 358.050027 C 423.231582 361.067941 421.139265 364.046964 418.969167 366.963762 C 416.806848 369.888338 414.566747 372.750689 412.264421 375.558594 C 409.954317 378.374276 407.581988 381.127733 405.139655 383.818966 C 402.697323 386.517976 400.192766 389.146984 397.618206 391.721544 C 395.051423 394.288326 392.414638 396.800662 389.723405 399.242994 C 387.024395 401.677548 384.270938 404.057655 381.463033 406.359981 C 378.647351 408.670085 375.785 410.910186 372.868202 413.072506 C 369.943626 415.242604 366.972381 417.33492 363.946689 419.349455 C 360.920997 421.371768 357.856415 423.316301 354.737385 425.190829 C 351.618356 427.05758 348.452658 428.84655 345.248069 430.565516 C 342.035702 432.276704 338.792222 433.910111 335.502074 435.465737 C 332.211926 437.021362 328.890665 438.491429 325.530514 439.883713 C 322.170363 441.275998 318.779099 442.582724 315.356722 443.811668 C 311.934346 445.032834 308.480857 446.176219 305.004034 447.234045 C 301.519432 448.284092 298.019275 449.256358 294.488005 450.143064 C 290.964513 451.021993 287.417686 451.82314 283.847525 452.53095 C 280.285143 453.238759 276.699425 453.86101 273.10593 454.397701 C 269.504657 454.926613 265.895606 455.369967 262.278776 455.72776 C 258.661946 456.085554 255.037339 456.350011 251.404953 456.528908 C 247.772567 456.707805 244.140181 456.801142 240.500017 456.801142 C 236.859853 456.801142 233.227467 456.707805 229.595081 456.528908 C 225.962696 456.350011 222.338088 456.085554 218.721258 455.72776 C 215.104429 455.369967 211.495377 454.926613 207.894104 454.397701 C 204.300609 453.86101 200.714892 453.238759 197.152509 452.53095 C 193.582348 451.82314 190.035522 451.021993 186.51203 450.143064 C 182.98076 449.256358 179.480602 448.284092 175.996 447.234045 C 172.519177 446.176219 169.065688 445.032834 165.643312 443.811668 C 162.220936 442.582724 158.829672 441.275998 155.46952 439.883713 C 152.109369 438.491429 148.788108 437.021362 145.49796 435.465737 C 142.207812 433.910111 138.964332 432.276704 135.751965 430.565516 C 132.547377 428.84655 129.381679 427.05758 126.262649 425.190829 C 123.14362 423.316301 120.079037 421.371768 117.053345 419.349455 C 114.027654 417.33492 111.056409 415.242604 108.131832 413.072506 C 105.215034 410.910186 102.352683 408.670085 99.537001 406.359981 C 96.729097 404.057655 93.975639 401.677548 91.276629 399.242994 C 88.585396 396.800662 85.948611 394.288326 83.381829 391.721544 C 80.807268 389.146984 78.302711 386.517976 75.860379 383.818966 C 73.418047 381.127733 71.045717 378.374276 68.735613 375.558594 C 66.433287 372.750689 64.193187 369.888338 62.030867 366.963762 C 59.860769 364.046964 57.768453 361.067941 55.746139 358.050027 C 53.723826 355.024335 51.779294 351.951975 49.912543 348.832945 C 48.045793 345.713916 46.249045 342.548218 44.537857 339.343629 C 42.826669 336.13904 41.185484 332.887783 39.629858 329.605413 C 38.08201 326.315264 36.604166 322.994004 35.211881 319.633852 C 33.819596 316.273701 32.512871 312.882437 31.291705 309.460061 C 30.06276 306.029906 28.927154 302.584196 27.869328 299.099594 C 26.811503 295.622771 25.839237 292.114835 24.960308 288.591343 C 24.073602 285.060073 23.280233 281.513246 22.572423 277.950864 C 21.856835 274.380703 21.242363 270.802764 20.705672 267.201491 C 20.168981 263.607995 19.725628 259.998944 19.367834 256.382114 C 19.01004 252.757507 18.745584 249.132899 18.566687 245.500513 C 18.38779 241.868127 18.302231 238.235741 18.302231 234.603356 C 18.302231 230.963192 18.38779 227.330806 18.566687 223.69842 C 18.745584 220.066034 19.01004 216.441426 19.367834 212.816819 C 19.725628 209.199989 20.168981 205.590938 20.705672 201.997442 C 21.242363 198.396169 21.856835 194.81823 22.572423 191.248069 C 23.280233 187.685687 24.073602 184.13886 24.960308 180.60759 C 25.839237 177.084098 26.811503 173.576162 27.869328 170.099339 C 28.927154 166.622516 30.06276 163.169027 31.291705 159.74665 C 32.512871 156.316496 33.819596 152.925232 35.211881 149.565081 C 36.604166 146.204929 38.08201 142.883669 39.629858 139.59352 C 41.185484 136.31115 42.826669 133.059893 44.537857 129.855304 C 46.249045 126.650715 48.045793 123.485017 49.912543 120.365988 C 51.779294 117.246958 53.723826 114.174598 55.746139 111.148906 C 57.768453 108.130992 59.860769 105.159747 62.030867 102.235171 C 64.193187 99.318373 66.433287 96.448244 68.735613 93.640339 C 71.045717 90.824657 73.418047 88.0712 75.860379 85.379967 C 78.302711 82.688735 80.807268 80.051949 83.381829 77.477389 C 85.948611 74.910607 88.585396 72.40605 91.276629 69.963717 C 93.975639 67.521385 96.729097 65.141278 99.537001 62.838952 C 102.352683 60.528848 105.215034 58.296525 108.131832 56.126427 C 111.056409 53.964108 114.027654 51.864013 117.053345 49.849478 C 120.079037 47.827165 123.14362 45.882633 126.262649 44.015882 C 129.381679 42.141353 132.547377 40.352383 135.751965 38.633417 C 138.964332 36.922229 142.207812 35.288822 145.49796 33.733196 C 148.788108 32.177571 152.109369 30.707505 155.46952 29.31522 C 158.829672 27.922935 162.220936 26.616209 165.643312 25.387265 C 169.065688 24.166099 172.519177 23.022714 175.996 21.964889 C 179.480602 20.914841 182.98076 19.942575 186.51203 19.055869 C 190.035522 18.17694 193.582348 17.375793 197.152509 16.667983 C 200.714892 15.960174 204.300609 15.337923 207.894104 14.801233 C 211.495377 14.27232 215.104429 13.828966 218.721258 13.471173 C 222.338088 13.113379 225.962696 12.848922 229.595081 12.670025 C 233.227467 12.491128 236.859853 12.397791 240.500017 12.397791 C 244.140181 12.397791 247.772567 12.491128 251.404953 12.670025 C 255.037339 12.848922 258.661946 13.113379 262.278776 13.471173 C 265.895606 13.828966 269.504657 14.27232 273.10593 14.801233 C 276.699425 15.337923 280.285143 15.960174 283.847525 16.667983 C 287.417686 17.375793 290.964513 18.17694 294.488005 19.055869 C 298.019275 19.942575 301.519432 20.914841 305.004034 21.964889 C 308.480857 23.022714 311.934346 24.166099 315.356722 25.387265 C 318.779099 26.616209 322.170363 27.922935 325.530514 29.31522 C 328.890665 30.707505 332.211926 32.177571 335.502074 33.733196 C 338.792222 35.288822 342.035702 36.922229 345.248069 38.633417 C 348.452658 40.352383 351.618356 42.141353 354.737385 44.015882 C 357.856415 45.882633 360.920997 47.827165 363.946689 49.849478 C 366.972381 51.864013 369.943626 53.964108 372.868202 56.126427 C 375.785 58.296525 378.647351 60.528848 381.463033 62.838952 C 384.270938 65.141278 387.024395 67.521385 389.723405 69.963717 C 392.414638 72.40605 395.051423 74.910607 397.618206 77.477389 C 400.192766 80.051949 402.697323 82.688735 405.139655 85.379967 C 407.581988 88.0712 409.954317 90.824657 412.264421 93.640339 C 414.566747 96.448244 416.806848 99.318373 418.969167 102.235171 C 421.139265 105.159747 423.231582 108.130992 425.253895 111.148906 C 427.276208 114.174598 429.22074 117.246958 431.087491 120.365988 C 432.954242 123.485017 434.750989 126.650715 436.462177 129.855304 C 438.173366 133.059893 439.814551 136.31115 441.370176 139.59352 C 442.918024 142.883669 444.395868 146.204929 445.788153 149.565081 C 447.180438 152.925232 448.487164 156.316496 449.70833 159.74665 C 450.937274 163.169027 452.072881 166.622516 453.130706 170.099339 C 454.188532 173.576162 455.160798 177.084098 456.039726 180.60759 C 456.926433 184.13886 457.719802 187.685687 458.427611 191.248069 C 459.143199 194.81823 459.757671 198.396169 460.294362 201.997442 C 460.831053 205.590938 461.274406 209.199989 461.6322 212.816819 C 461.989994 216.441426 462.25445 220.066034 462.433347 223.69842 C 462.612244 227.330806 462.697804 230.963192 462.697804 234.603356 Z M 462.697804 234.603356 " stroke="#4267b2" stroke-width="1" stroke-opacity="1" stroke-miterlimit="10"/></g><g clip-path="url(#084c43f6db)"><path fill="#ffffff" d="M 140.667969 35.78125 C 131.78125 37.390625 128.714844 38.894531 123.59375 41.808594 C 118.121094 44.921875 114.300781 48.1875 111.691406 50.847656 C 103.152344 59.6875 101.246094 67.921875 99.636719 74.300781 C 97.226562 83.691406 97.476562 92.53125 97.476562 92.53125 L 97.476562 99.410156 L 79.550781 99.410156 L 79.550781 130.597656 L 97.476562 130.597656 L 97.476562 224.761719 C 103.003906 225.617188 108.675781 226.070312 114.453125 226.070312 C 122.992188 226.070312 131.328125 225.113281 139.3125 223.308594 L 139.3125 130.597656 L 166.582031 130.597656 L 166.582031 99.410156 L 139.3125 99.410156 L 139.3125 92.78125 C 139.3125 92.78125 139.3125 91.578125 139.3125 91.425781 C 139.3125 91.277344 139.3125 91.074219 139.3125 90.925781 C 139.3125 89.570312 139.363281 87.558594 139.664062 85.800781 C 140.417969 81.230469 141.972656 77.667969 144.585938 74.503906 C 147.597656 70.886719 151.113281 69.328125 155.03125 68.726562 C 164.722656 67.21875 172.808594 70.585938 172.808594 70.585938 L 174.316406 37.789062 C 174.316406 37.789062 168.238281 35.832031 158.195312 35.128906 C 151.113281 34.625 144.835938 35.027344 140.667969 35.78125 Z M 140.667969 35.78125 " fill-opacity="1" fill-rule="nonzero"/></g><g clip-path="url(#9f829cf12c)"><path stroke-linecap="butt" transform="matrix(0.50221, 0, 0, 0.50221, -6.328273, -3.390351)" fill="none" stroke-linejoin="miter" d="M 292.699035 77.998524 C 275.003794 81.203112 268.897963 84.197692 258.700837 90.000175 C 247.803679 96.199343 240.19667 102.701859 235.000881 107.998764 C 217.997892 125.600668 214.202166 141.996962 210.997577 154.698645 C 206.198472 173.397265 206.696272 190.999169 206.696272 190.999169 L 206.696272 204.696453 L 171.002442 204.696453 L 171.002442 266.797028 L 206.696272 266.797028 L 206.696272 454.296585 C 217.702324 455.999995 228.996166 456.902258 240.500017 456.902258 C 257.503005 456.902258 274.101531 454.996616 290.000025 451.403121 L 290.000025 266.797028 L 344.299137 266.797028 L 344.299137 204.696453 L 290.000025 204.696453 L 290.000025 191.496969 C 290.000025 191.496969 290.000025 189.101306 290.000025 188.797959 C 290.000025 188.50239 290.000025 188.097927 290.000025 187.802359 C 290.000025 185.103348 290.10114 181.097612 290.700056 177.597454 C 292.201235 168.497045 295.29693 161.403392 300.500498 155.103108 C 306.497434 147.900561 313.49775 144.797088 321.299212 143.599256 C 340.596748 140.596899 356.697473 147.301645 356.697473 147.301645 L 359.699831 81.996481 C 359.699831 81.996481 347.597063 78.099639 327.599496 76.699576 C 313.49775 75.696198 300.998298 76.497345 292.699035 77.998524 Z M 292.699035 77.998524 " stroke="#ffffff" stroke-width="1" stroke-opacity="1" stroke-miterlimit="10"/></g></svg>