<svg xmlns="http://www.w3.org/2000/svg" xmlns:xlink="http://www.w3.org/1999/xlink" width="304" zoomAndPan="magnify" viewBox="0 0 228 227.999995" height="304" preserveAspectRatio="xMidYMid meet" version="1.0"><defs><clipPath id="da020ba356"><path d="M 1.929688 1.929688 L 226.179688 1.929688 L 226.179688 226.179688 L 1.929688 226.179688 Z M 1.929688 1.929688 " clip-rule="nonzero"/></clipPath><clipPath id="bfbd63c1e5"><path d="M 226.179688 114.054688 C 226.179688 115.890625 226.136719 117.722656 226.046875 119.558594 C 225.957031 121.390625 225.820312 123.21875 225.640625 125.046875 C 225.460938 126.871094 225.234375 128.691406 224.964844 130.507812 C 224.699219 132.324219 224.382812 134.128906 224.027344 135.929688 C 223.667969 137.730469 223.265625 139.519531 222.820312 141.300781 C 222.375 143.078125 221.886719 144.847656 221.351562 146.601562 C 220.820312 148.359375 220.242188 150.101562 219.625 151.828125 C 219.007812 153.558594 218.347656 155.269531 217.644531 156.964844 C 216.941406 158.660156 216.199219 160.335938 215.414062 161.996094 C 214.628906 163.652344 213.804688 165.292969 212.941406 166.910156 C 212.074219 168.527344 211.171875 170.125 210.226562 171.699219 C 209.285156 173.273438 208.304688 174.824219 207.285156 176.347656 C 206.265625 177.875 205.207031 179.375 204.113281 180.847656 C 203.023438 182.320312 201.894531 183.769531 200.730469 185.1875 C 199.566406 186.605469 198.367188 187.996094 197.132812 189.355469 C 195.902344 190.714844 194.636719 192.042969 193.339844 193.339844 C 192.042969 194.636719 190.714844 195.902344 189.355469 197.132812 C 187.996094 198.367188 186.605469 199.566406 185.1875 200.730469 C 183.769531 201.894531 182.320312 203.023438 180.847656 204.113281 C 179.375 205.207031 177.875 206.265625 176.347656 207.285156 C 174.824219 208.304688 173.273438 209.285156 171.699219 210.226562 C 170.125 211.171875 168.527344 212.074219 166.910156 212.941406 C 165.292969 213.804688 163.652344 214.628906 161.996094 215.414062 C 160.335938 216.199219 158.660156 216.941406 156.964844 217.644531 C 155.269531 218.347656 153.558594 219.007812 151.828125 219.625 C 150.101562 220.242188 148.359375 220.820312 146.601562 221.351562 C 144.847656 221.886719 143.078125 222.375 141.300781 222.820312 C 139.519531 223.265625 137.730469 223.667969 135.929688 224.027344 C 134.128906 224.382812 132.324219 224.699219 130.507812 224.964844 C 128.691406 225.234375 126.871094 225.460938 125.046875 225.640625 C 123.21875 225.820312 121.390625 225.957031 119.558594 226.046875 C 117.722656 226.136719 115.890625 226.179688 114.054688 226.179688 C 112.21875 226.179688 110.386719 226.136719 108.554688 226.046875 C 106.722656 225.957031 104.890625 225.820312 103.066406 225.640625 C 101.238281 225.460938 99.417969 225.234375 97.601562 224.964844 C 95.789062 224.699219 93.980469 224.382812 92.179688 224.027344 C 90.382812 223.667969 88.589844 223.265625 86.8125 222.820312 C 85.03125 222.375 83.261719 221.886719 81.507812 221.351562 C 79.75 220.820312 78.007812 220.242188 76.28125 219.625 C 74.554688 219.007812 72.84375 218.347656 71.148438 217.644531 C 69.453125 216.941406 67.773438 216.199219 66.117188 215.414062 C 64.457031 214.628906 62.816406 213.804688 61.199219 212.941406 C 59.582031 212.074219 57.984375 211.171875 56.410156 210.226562 C 54.835938 209.285156 53.289062 208.304688 51.761719 207.285156 C 50.234375 206.265625 48.738281 205.207031 47.261719 204.113281 C 45.789062 203.023438 44.34375 201.894531 42.925781 200.730469 C 41.503906 199.566406 40.117188 198.367188 38.757812 197.132812 C 37.398438 195.902344 36.070312 194.636719 34.769531 193.339844 C 33.472656 192.042969 32.207031 190.714844 30.976562 189.355469 C 29.742188 187.996094 28.546875 186.605469 27.382812 185.1875 C 26.21875 183.769531 25.089844 182.320312 23.996094 180.847656 C 22.902344 179.375 21.847656 177.875 20.828125 176.347656 C 19.808594 174.824219 18.824219 173.273438 17.882812 171.699219 C 16.9375 170.125 16.035156 168.527344 15.171875 166.910156 C 14.304688 165.292969 13.480469 163.652344 12.695312 161.996094 C 11.910156 160.335938 11.167969 158.660156 10.464844 156.964844 C 9.761719 155.269531 9.101562 153.558594 8.484375 151.828125 C 7.867188 150.101562 7.292969 148.359375 6.757812 146.601562 C 6.226562 144.847656 5.738281 143.078125 5.289062 141.300781 C 4.84375 139.519531 4.441406 137.730469 4.085938 135.929688 C 3.726562 134.128906 3.414062 132.324219 3.144531 130.507812 C 2.875 128.691406 2.648438 126.871094 2.46875 125.046875 C 2.289062 123.21875 2.15625 121.390625 2.066406 119.558594 C 1.976562 117.722656 1.929688 115.890625 1.929688 114.054688 C 1.929688 112.21875 1.976562 110.386719 2.066406 108.554688 C 2.15625 106.722656 2.289062 104.890625 2.46875 103.066406 C 2.648438 101.238281 2.875 99.417969 3.144531 97.601562 C 3.414062 95.789062 3.726562 93.980469 4.085938 92.179688 C 4.441406 90.382812 4.84375 88.589844 5.289062 86.8125 C 5.738281 85.03125 6.226562 83.261719 6.757812 81.507812 C 7.292969 79.75 7.867188 78.007812 8.484375 76.28125 C 9.101562 74.554688 9.761719 72.84375 10.464844 71.148438 C 11.167969 69.453125 11.910156 67.773438 12.695312 66.117188 C 13.480469 64.457031 14.304688 62.816406 15.171875 61.199219 C 16.035156 59.582031 16.9375 57.984375 17.882812 56.410156 C 18.824219 54.835938 19.808594 53.289062 20.828125 51.761719 C 21.847656 50.234375 22.902344 48.738281 23.996094 47.261719 C 25.089844 45.789062 26.21875 44.34375 27.382812 42.925781 C 28.546875 41.503906 29.742188 40.117188 30.976562 38.757812 C 32.207031 37.398438 33.472656 36.070312 34.769531 34.769531 C 36.070312 33.472656 37.398438 32.207031 38.757812 30.976562 C 40.117188 29.742188 41.503906 28.546875 42.925781 27.382812 C 44.34375 26.21875 45.789062 25.089844 47.261719 23.996094 C 48.738281 22.902344 50.234375 21.847656 51.761719 20.828125 C 53.289062 19.808594 54.835938 18.824219 56.410156 17.882812 C 57.984375 16.9375 59.582031 16.035156 61.199219 15.171875 C 62.816406 14.304688 64.457031 13.480469 66.117188 12.695312 C 67.773438 11.910156 69.453125 11.167969 71.148438 10.464844 C 72.84375 9.761719 74.554688 9.101562 76.28125 8.484375 C 78.007812 7.867188 79.75 7.292969 81.507812 6.757812 C 83.261719 6.226562 85.03125 5.738281 86.8125 5.289062 C 88.589844 4.84375 90.382812 4.441406 92.179688 4.085938 C 93.980469 3.726562 95.789062 3.414062 97.601562 3.144531 C 99.417969 2.875 101.238281 2.648438 103.066406 2.46875 C 104.890625 2.289062 106.722656 2.15625 108.554688 2.066406 C 110.386719 1.976562 112.21875 1.929688 114.054688 1.929688 C 115.890625 1.929688 117.722656 1.976562 119.558594 2.066406 C 121.390625 2.15625 123.21875 2.289062 125.046875 2.46875 C 126.871094 2.648438 128.691406 2.875 130.507812 3.144531 C 132.324219 3.414062 134.128906 3.726562 135.929688 4.085938 C 137.730469 4.441406 139.519531 4.84375 141.300781 5.289062 C 143.078125 5.738281 144.847656 6.226562 146.601562 6.757812 C 148.359375 7.292969 150.101562 7.867188 151.828125 8.484375 C 153.558594 9.101562 155.269531 9.761719 156.964844 10.464844 C 158.660156 11.167969 160.335938 11.910156 161.996094 12.695312 C 163.652344 13.480469 165.292969 14.304688 166.910156 15.171875 C 168.527344 16.035156 170.125 16.9375 171.699219 17.882812 C 173.273438 18.824219 174.824219 19.808594 176.347656 20.828125 C 177.875 21.847656 179.375 22.902344 180.847656 23.996094 C 182.320312 25.089844 183.769531 26.21875 185.1875 27.382812 C 186.605469 28.546875 187.996094 29.742188 189.355469 30.976562 C 190.714844 32.207031 192.042969 33.472656 193.339844 34.769531 C 194.636719 36.070312 195.902344 37.398438 197.132812 38.757812 C 198.367188 40.117188 199.566406 41.503906 200.730469 42.925781 C 201.894531 44.34375 203.023438 45.789062 204.113281 47.261719 C 205.207031 48.738281 206.265625 50.234375 207.285156 51.761719 C 208.304688 53.289062 209.285156 54.835938 210.226562 56.410156 C 211.171875 57.984375 212.074219 59.582031 212.941406 61.199219 C 213.804688 62.816406 214.628906 64.457031 215.414062 66.117188 C 216.199219 67.773438 216.941406 69.453125 217.644531 71.148438 C 218.347656 72.84375 219.007812 74.554688 219.625 76.28125 C 220.242188 78.007812 220.820312 79.75 221.351562 81.507812 C 221.886719 83.261719 222.375 85.03125 222.820312 86.8125 C 223.265625 88.589844 223.667969 90.382812 224.027344 92.179688 C 224.382812 93.980469 224.699219 95.789062 224.964844 97.601562 C 225.234375 99.417969 225.460938 101.238281 225.640625 103.066406 C 225.820312 104.890625 225.957031 106.722656 226.046875 108.554688 C 226.136719 110.386719 226.179688 112.21875 226.179688 114.054688 Z M 226.179688 114.054688 " clip-rule="nonzero"/></clipPath><linearGradient x1="0.0499105" gradientTransform="matrix(0.730456, 0, 0, 0.730456, 1.930354, 1.93036)" y1="307.049883" x2="307.0506" gradientUnits="userSpaceOnUse" y2="0.050605" id="8ac0ae75f5"><stop stop-opacity="1" stop-color="rgb(99.609375%, 75.289917%, 32.548523%)" offset="0"/><stop stop-opacity="1" stop-color="rgb(99.609375%, 75.289917%, 32.548523%)" offset="0.125"/><stop stop-opacity="1" stop-color="rgb(99.609375%, 75.289917%, 32.548523%)" offset="0.140625"/><stop stop-opacity="1" stop-color="rgb(99.594116%, 75.093079%, 32.522583%)" offset="0.144531"/><stop stop-opacity="1" stop-color="rgb(99.580383%, 74.89624%, 32.498169%)" offset="0.148438"/><stop stop-opacity="1" stop-color="rgb(99.523926%, 74.162292%, 32.400513%)" offset="0.152344"/><stop stop-opacity="1" stop-color="rgb(99.468994%, 73.428345%, 32.304382%)" offset="0.15625"/><stop stop-opacity="1" stop-color="rgb(99.414062%, 72.692871%, 32.208252%)" offset="0.160156"/><stop stop-opacity="1" stop-color="rgb(99.359131%, 71.958923%, 32.112122%)" offset="0.164063"/><stop stop-opacity="1" stop-color="rgb(99.304199%, 71.22345%, 32.014465%)" offset="0.167969"/><stop stop-opacity="1" stop-color="rgb(99.249268%, 70.489502%, 31.918335%)" offset="0.171875"/><stop stop-opacity="1" stop-color="rgb(99.19281%, 69.754028%, 31.822205%)" offset="0.175781"/><stop stop-opacity="1" stop-color="rgb(99.137878%, 69.020081%, 31.726074%)" offset="0.179688"/><stop stop-opacity="1" stop-color="rgb(99.082947%, 68.284607%, 31.628418%)" offset="0.183594"/><stop stop-opacity="1" stop-color="rgb(99.028015%, 67.550659%, 31.532288%)" offset="0.1875"/><stop stop-opacity="1" stop-color="rgb(98.973083%, 66.815186%, 31.436157%)" offset="0.191406"/><stop stop-opacity="1" stop-color="rgb(98.918152%, 66.081238%, 31.340027%)" offset="0.195312"/><stop stop-opacity="1" stop-color="rgb(98.86322%, 65.345764%, 31.242371%)" offset="0.199219"/><stop stop-opacity="1" stop-color="rgb(98.808289%, 64.611816%, 31.14624%)" offset="0.203125"/><stop stop-opacity="1" stop-color="rgb(98.751831%, 63.876343%, 31.05011%)" offset="0.207031"/><stop stop-opacity="1" stop-color="rgb(98.696899%, 63.142395%, 30.953979%)" offset="0.210938"/><stop stop-opacity="1" stop-color="rgb(98.641968%, 62.406921%, 30.856323%)" offset="0.214844"/><stop stop-opacity="1" stop-color="rgb(98.587036%, 61.672974%, 30.760193%)" offset="0.21875"/><stop stop-opacity="1" stop-color="rgb(98.532104%, 60.9375%, 30.664062%)" offset="0.222656"/><stop stop-opacity="1" stop-color="rgb(98.477173%, 60.203552%, 30.567932%)" offset="0.226562"/><stop stop-opacity="1" stop-color="rgb(98.420715%, 59.468079%, 30.471802%)" offset="0.230469"/><stop stop-opacity="1" stop-color="rgb(98.365784%, 58.734131%, 30.375671%)" offset="0.234375"/><stop stop-opacity="1" stop-color="rgb(98.310852%, 57.998657%, 30.278015%)" offset="0.238281"/><stop stop-opacity="1" stop-color="rgb(98.25592%, 57.264709%, 30.181885%)" offset="0.242188"/><stop stop-opacity="1" stop-color="rgb(98.200989%, 56.529236%, 30.085754%)" offset="0.246094"/><stop stop-opacity="1" stop-color="rgb(98.146057%, 55.795288%, 29.989624%)" offset="0.25"/><stop stop-opacity="1" stop-color="rgb(98.091125%, 55.059814%, 29.891968%)" offset="0.253906"/><stop stop-opacity="1" stop-color="rgb(98.036194%, 54.325867%, 29.795837%)" offset="0.257812"/><stop stop-opacity="1" stop-color="rgb(97.979736%, 53.590393%, 29.699707%)" offset="0.261719"/><stop stop-opacity="1" stop-color="rgb(97.924805%, 52.856445%, 29.603577%)" offset="0.265625"/><stop stop-opacity="1" stop-color="rgb(97.869873%, 52.120972%, 29.50592%)" offset="0.269531"/><stop stop-opacity="1" stop-color="rgb(97.814941%, 51.387024%, 29.40979%)" offset="0.273438"/><stop stop-opacity="1" stop-color="rgb(97.76001%, 50.65155%, 29.31366%)" offset="0.277344"/><stop stop-opacity="1" stop-color="rgb(97.705078%, 49.917603%, 29.217529%)" offset="0.28125"/><stop stop-opacity="1" stop-color="rgb(97.648621%, 49.182129%, 29.119873%)" offset="0.285156"/><stop stop-opacity="1" stop-color="rgb(97.593689%, 48.448181%, 29.023743%)" offset="0.289063"/><stop stop-opacity="1" stop-color="rgb(97.538757%, 47.712708%, 28.927612%)" offset="0.292969"/><stop stop-opacity="1" stop-color="rgb(97.483826%, 46.97876%, 28.831482%)" offset="0.296875"/><stop stop-opacity="1" stop-color="rgb(97.428894%, 46.243286%, 28.733826%)" offset="0.300781"/><stop stop-opacity="1" stop-color="rgb(97.373962%, 45.509338%, 28.637695%)" offset="0.304688"/><stop stop-opacity="1" stop-color="rgb(97.317505%, 44.773865%, 28.541565%)" offset="0.308594"/><stop stop-opacity="1" stop-color="rgb(97.262573%, 44.039917%, 28.445435%)" offset="0.3125"/><stop stop-opacity="1" stop-color="rgb(97.207642%, 43.304443%, 28.347778%)" offset="0.316406"/><stop stop-opacity="1" stop-color="rgb(97.15271%, 42.570496%, 28.251648%)" offset="0.320313"/><stop stop-opacity="1" stop-color="rgb(97.097778%, 41.835022%, 28.155518%)" offset="0.324219"/><stop stop-opacity="1" stop-color="rgb(97.042847%, 41.101074%, 28.059387%)" offset="0.328125"/><stop stop-opacity="1" stop-color="rgb(96.987915%, 40.365601%, 27.961731%)" offset="0.332031"/><stop stop-opacity="1" stop-color="rgb(96.932983%, 39.631653%, 27.865601%)" offset="0.335938"/><stop stop-opacity="1" stop-color="rgb(96.876526%, 38.896179%, 27.76947%)" offset="0.339844"/><stop stop-opacity="1" stop-color="rgb(96.821594%, 38.162231%, 27.67334%)" offset="0.34375"/><stop stop-opacity="1" stop-color="rgb(96.766663%, 37.428284%, 27.575684%)" offset="0.347656"/><stop stop-opacity="1" stop-color="rgb(96.711731%, 36.694336%, 27.479553%)" offset="0.351563"/><stop stop-opacity="1" stop-color="rgb(96.656799%, 35.958862%, 27.383423%)" offset="0.355469"/><stop stop-opacity="1" stop-color="rgb(96.601868%, 35.224915%, 27.287292%)" offset="0.359375"/><stop stop-opacity="1" stop-color="rgb(96.54541%, 34.489441%, 27.191162%)" offset="0.363281"/><stop stop-opacity="1" stop-color="rgb(96.490479%, 33.755493%, 27.095032%)" offset="0.367187"/><stop stop-opacity="1" stop-color="rgb(96.435547%, 33.02002%, 26.997375%)" offset="0.371094"/><stop stop-opacity="1" stop-color="rgb(96.380615%, 32.286072%, 26.901245%)" offset="0.375"/><stop stop-opacity="1" stop-color="rgb(96.325684%, 31.550598%, 26.805115%)" offset="0.378906"/><stop stop-opacity="1" stop-color="rgb(96.270752%, 30.81665%, 26.708984%)" offset="0.382813"/><stop stop-opacity="1" stop-color="rgb(96.21582%, 30.081177%, 26.611328%)" offset="0.386719"/><stop stop-opacity="1" stop-color="rgb(96.160889%, 29.347229%, 26.515198%)" offset="0.390625"/><stop stop-opacity="1" stop-color="rgb(96.104431%, 28.611755%, 26.419067%)" offset="0.394531"/><stop stop-opacity="1" stop-color="rgb(96.0495%, 27.877808%, 26.322937%)" offset="0.398438"/><stop stop-opacity="1" stop-color="rgb(95.994568%, 27.142334%, 26.225281%)" offset="0.402344"/><stop stop-opacity="1" stop-color="rgb(95.939636%, 26.408386%, 26.12915%)" offset="0.40625"/><stop stop-opacity="1" stop-color="rgb(95.884705%, 25.672913%, 26.03302%)" offset="0.410156"/><stop stop-opacity="1" stop-color="rgb(95.829773%, 24.938965%, 25.93689%)" offset="0.414062"/><stop stop-opacity="1" stop-color="rgb(95.773315%, 24.203491%, 25.839233%)" offset="0.417969"/><stop stop-opacity="1" stop-color="rgb(95.718384%, 23.469543%, 25.743103%)" offset="0.421875"/><stop stop-opacity="1" stop-color="rgb(95.663452%, 22.73407%, 25.646973%)" offset="0.425781"/><stop stop-opacity="1" stop-color="rgb(95.608521%, 22.000122%, 25.550842%)" offset="0.429688"/><stop stop-opacity="1" stop-color="rgb(95.553589%, 21.264648%, 25.453186%)" offset="0.433594"/><stop stop-opacity="1" stop-color="rgb(95.498657%, 20.530701%, 25.357056%)" offset="0.4375"/><stop stop-opacity="1" stop-color="rgb(95.443726%, 19.795227%, 25.260925%)" offset="0.441406"/><stop stop-opacity="1" stop-color="rgb(95.388794%, 19.061279%, 25.164795%)" offset="0.445312"/><stop stop-opacity="1" stop-color="rgb(95.332336%, 18.325806%, 25.067139%)" offset="0.449219"/><stop stop-opacity="1" stop-color="rgb(95.277405%, 17.591858%, 24.971008%)" offset="0.453125"/><stop stop-opacity="1" stop-color="rgb(95.222473%, 16.856384%, 24.874878%)" offset="0.457031"/><stop stop-opacity="1" stop-color="rgb(95.167542%, 16.122437%, 24.778748%)" offset="0.460938"/><stop stop-opacity="1" stop-color="rgb(95.11261%, 15.386963%, 24.681091%)" offset="0.464844"/><stop stop-opacity="1" stop-color="rgb(95.057678%, 14.653015%, 24.584961%)" offset="0.46875"/><stop stop-opacity="1" stop-color="rgb(95.001221%, 13.917542%, 24.488831%)" offset="0.472656"/><stop stop-opacity="1" stop-color="rgb(94.946289%, 13.183594%, 24.3927%)" offset="0.476563"/><stop stop-opacity="1" stop-color="rgb(94.621277%, 12.861633%, 24.891663%)" offset="0.480469"/><stop stop-opacity="1" stop-color="rgb(94.296265%, 12.539673%, 25.392151%)" offset="0.484375"/><stop stop-opacity="1" stop-color="rgb(93.765259%, 12.530518%, 26.345825%)" offset="0.488281"/><stop stop-opacity="1" stop-color="rgb(93.234253%, 12.521362%, 27.2995%)" offset="0.492188"/><stop stop-opacity="1" stop-color="rgb(92.703247%, 12.512207%, 28.251648%)" offset="0.496094"/><stop stop-opacity="1" stop-color="rgb(92.173767%, 12.503052%, 29.205322%)" offset="0.5"/><stop stop-opacity="1" stop-color="rgb(91.642761%, 12.493896%, 30.158997%)" offset="0.503906"/><stop stop-opacity="1" stop-color="rgb(91.111755%, 12.484741%, 31.112671%)" offset="0.507812"/><stop stop-opacity="1" stop-color="rgb(90.58075%, 12.475586%, 32.066345%)" offset="0.511719"/><stop stop-opacity="1" stop-color="rgb(90.05127%, 12.467957%, 33.02002%)" offset="0.515625"/><stop stop-opacity="1" stop-color="rgb(89.520264%, 12.458801%, 33.972168%)" offset="0.519531"/><stop stop-opacity="1" stop-color="rgb(88.989258%, 12.449646%, 34.925842%)" offset="0.523438"/><stop stop-opacity="1" stop-color="rgb(88.458252%, 12.440491%, 35.879517%)" offset="0.527344"/><stop stop-opacity="1" stop-color="rgb(87.927246%, 12.431335%, 36.833191%)" offset="0.53125"/><stop stop-opacity="1" stop-color="rgb(87.39624%, 12.42218%, 37.785339%)" offset="0.535156"/><stop stop-opacity="1" stop-color="rgb(86.86676%, 12.414551%, 38.739014%)" offset="0.539063"/><stop stop-opacity="1" stop-color="rgb(86.335754%, 12.405396%, 39.692688%)" offset="0.542969"/><stop stop-opacity="1" stop-color="rgb(85.804749%, 12.39624%, 40.646362%)" offset="0.546875"/><stop stop-opacity="1" stop-color="rgb(85.273743%, 12.387085%, 41.600037%)" offset="0.550781"/><stop stop-opacity="1" stop-color="rgb(84.744263%, 12.37793%, 42.553711%)" offset="0.554688"/><stop stop-opacity="1" stop-color="rgb(84.213257%, 12.368774%, 43.505859%)" offset="0.558594"/><stop stop-opacity="1" stop-color="rgb(83.682251%, 12.359619%, 44.459534%)" offset="0.5625"/><stop stop-opacity="1" stop-color="rgb(83.151245%, 12.350464%, 45.413208%)" offset="0.566406"/><stop stop-opacity="1" stop-color="rgb(82.621765%, 12.342834%, 46.366882%)" offset="0.570312"/><stop stop-opacity="1" stop-color="rgb(82.090759%, 12.333679%, 47.319031%)" offset="0.574219"/><stop stop-opacity="1" stop-color="rgb(81.559753%, 12.324524%, 48.272705%)" offset="0.578125"/><stop stop-opacity="1" stop-color="rgb(81.028748%, 12.315369%, 49.226379%)" offset="0.582031"/><stop stop-opacity="1" stop-color="rgb(80.497742%, 12.306213%, 50.180054%)" offset="0.585938"/><stop stop-opacity="1" stop-color="rgb(79.966736%, 12.297058%, 51.133728%)" offset="0.589844"/><stop stop-opacity="1" stop-color="rgb(79.437256%, 12.287903%, 52.087402%)" offset="0.59375"/><stop stop-opacity="1" stop-color="rgb(78.90625%, 12.278748%, 53.039551%)" offset="0.597656"/><stop stop-opacity="1" stop-color="rgb(78.375244%, 12.271118%, 53.993225%)" offset="0.601562"/><stop stop-opacity="1" stop-color="rgb(77.844238%, 12.261963%, 54.946899%)" offset="0.605469"/><stop stop-opacity="1" stop-color="rgb(77.314758%, 12.252808%, 55.900574%)" offset="0.609375"/><stop stop-opacity="1" stop-color="rgb(76.783752%, 12.243652%, 56.852722%)" offset="0.613281"/><stop stop-opacity="1" stop-color="rgb(76.252747%, 12.234497%, 57.806396%)" offset="0.617188"/><stop stop-opacity="1" stop-color="rgb(75.721741%, 12.225342%, 58.760071%)" offset="0.621094"/><stop stop-opacity="1" stop-color="rgb(75.190735%, 12.217712%, 59.713745%)" offset="0.625"/><stop stop-opacity="1" stop-color="rgb(74.659729%, 12.208557%, 60.665894%)" offset="0.628906"/><stop stop-opacity="1" stop-color="rgb(74.130249%, 12.199402%, 61.619568%)" offset="0.632812"/><stop stop-opacity="1" stop-color="rgb(73.599243%, 12.190247%, 62.573242%)" offset="0.636719"/><stop stop-opacity="1" stop-color="rgb(73.068237%, 12.181091%, 63.526917%)" offset="0.640625"/><stop stop-opacity="1" stop-color="rgb(72.537231%, 12.171936%, 64.480591%)" offset="0.644531"/><stop stop-opacity="1" stop-color="rgb(72.007751%, 12.162781%, 65.434265%)" offset="0.648438"/><stop stop-opacity="1" stop-color="rgb(71.304321%, 12.449646%, 65.922546%)" offset="0.652344"/><stop stop-opacity="1" stop-color="rgb(70.602417%, 12.738037%, 66.412354%)" offset="0.65625"/><stop stop-opacity="1" stop-color="rgb(69.847107%, 13.114929%, 66.758728%)" offset="0.660156"/><stop stop-opacity="1" stop-color="rgb(69.091797%, 13.493347%, 67.106628%)" offset="0.664062"/><stop stop-opacity="1" stop-color="rgb(68.336487%, 13.870239%, 67.453003%)" offset="0.667969"/><stop stop-opacity="1" stop-color="rgb(67.581177%, 14.247131%, 67.800903%)" offset="0.671875"/><stop stop-opacity="1" stop-color="rgb(66.825867%, 14.624023%, 68.148804%)" offset="0.675781"/><stop stop-opacity="1" stop-color="rgb(66.070557%, 15.002441%, 68.496704%)" offset="0.679688"/><stop stop-opacity="1" stop-color="rgb(65.315247%, 15.379333%, 68.843079%)" offset="0.683594"/><stop stop-opacity="1" stop-color="rgb(64.561462%, 15.757751%, 69.190979%)" offset="0.6875"/><stop stop-opacity="1" stop-color="rgb(63.806152%, 16.134644%, 69.537354%)" offset="0.691406"/><stop stop-opacity="1" stop-color="rgb(63.050842%, 16.513062%, 69.885254%)" offset="0.695313"/><stop stop-opacity="1" stop-color="rgb(62.295532%, 16.889954%, 70.233154%)" offset="0.699219"/><stop stop-opacity="1" stop-color="rgb(61.540222%, 17.266846%, 70.581055%)" offset="0.703125"/><stop stop-opacity="1" stop-color="rgb(60.784912%, 17.643738%, 70.927429%)" offset="0.707031"/><stop stop-opacity="1" stop-color="rgb(60.029602%, 18.022156%, 71.27533%)" offset="0.710938"/><stop stop-opacity="1" stop-color="rgb(59.274292%, 18.399048%, 71.62323%)" offset="0.714844"/><stop stop-opacity="1" stop-color="rgb(58.520508%, 18.777466%, 71.97113%)" offset="0.71875"/><stop stop-opacity="1" stop-color="rgb(57.765198%, 19.154358%, 72.317505%)" offset="0.722656"/><stop stop-opacity="1" stop-color="rgb(57.009888%, 19.532776%, 72.665405%)" offset="0.726562"/><stop stop-opacity="1" stop-color="rgb(56.254578%, 19.909668%, 73.01178%)" offset="0.730469"/><stop stop-opacity="1" stop-color="rgb(55.499268%, 20.28656%, 73.35968%)" offset="0.734375"/><stop stop-opacity="1" stop-color="rgb(54.743958%, 20.663452%, 73.707581%)" offset="0.738281"/><stop stop-opacity="1" stop-color="rgb(53.990173%, 21.04187%, 74.055481%)" offset="0.742188"/><stop stop-opacity="1" stop-color="rgb(53.234863%, 21.418762%, 74.401855%)" offset="0.746094"/><stop stop-opacity="1" stop-color="rgb(52.479553%, 21.79718%, 74.749756%)" offset="0.75"/><stop stop-opacity="1" stop-color="rgb(51.724243%, 22.174072%, 75.09613%)" offset="0.753906"/><stop stop-opacity="1" stop-color="rgb(50.968933%, 22.550964%, 75.444031%)" offset="0.757813"/><stop stop-opacity="1" stop-color="rgb(50.213623%, 22.927856%, 75.791931%)" offset="0.761719"/><stop stop-opacity="1" stop-color="rgb(49.458313%, 23.306274%, 76.139832%)" offset="0.765625"/><stop stop-opacity="1" stop-color="rgb(48.703003%, 23.683167%, 76.486206%)" offset="0.769531"/><stop stop-opacity="1" stop-color="rgb(47.949219%, 24.061584%, 76.834106%)" offset="0.773438"/><stop stop-opacity="1" stop-color="rgb(47.193909%, 24.438477%, 77.180481%)" offset="0.777344"/><stop stop-opacity="1" stop-color="rgb(46.438599%, 24.816895%, 77.528381%)" offset="0.78125"/><stop stop-opacity="1" stop-color="rgb(45.683289%, 25.193787%, 77.876282%)" offset="0.785156"/><stop stop-opacity="1" stop-color="rgb(44.927979%, 25.570679%, 78.224182%)" offset="0.789062"/><stop stop-opacity="1" stop-color="rgb(44.172668%, 25.947571%, 78.570557%)" offset="0.792969"/><stop stop-opacity="1" stop-color="rgb(43.417358%, 26.325989%, 78.918457%)" offset="0.796875"/><stop stop-opacity="1" stop-color="rgb(42.662048%, 26.702881%, 79.266357%)" offset="0.800781"/><stop stop-opacity="1" stop-color="rgb(41.908264%, 27.081299%, 79.614258%)" offset="0.804688"/><stop stop-opacity="1" stop-color="rgb(41.152954%, 27.458191%, 79.960632%)" offset="0.808594"/><stop stop-opacity="1" stop-color="rgb(40.397644%, 27.836609%, 80.308533%)" offset="0.8125"/><stop stop-opacity="1" stop-color="rgb(39.642334%, 28.213501%, 80.654907%)" offset="0.816406"/><stop stop-opacity="1" stop-color="rgb(38.887024%, 28.590393%, 81.002808%)" offset="0.820313"/><stop stop-opacity="1" stop-color="rgb(38.131714%, 28.967285%, 81.350708%)" offset="0.824219"/><stop stop-opacity="1" stop-color="rgb(37.376404%, 29.345703%, 81.698608%)" offset="0.828125"/><stop stop-opacity="1" stop-color="rgb(36.621094%, 29.722595%, 82.044983%)" offset="0.832031"/><stop stop-opacity="1" stop-color="rgb(35.86731%, 30.101013%, 82.392883%)" offset="0.835938"/><stop stop-opacity="1" stop-color="rgb(35.112%, 30.477905%, 82.739258%)" offset="0.839844"/><stop stop-opacity="1" stop-color="rgb(34.356689%, 30.856323%, 83.087158%)" offset="0.84375"/><stop stop-opacity="1" stop-color="rgb(33.601379%, 31.233215%, 83.435059%)" offset="0.847656"/><stop stop-opacity="1" stop-color="rgb(32.846069%, 31.610107%, 83.782959%)" offset="0.851563"/><stop stop-opacity="1" stop-color="rgb(32.696533%, 31.684875%, 83.850098%)" offset="0.859375"/><stop stop-opacity="1" stop-color="rgb(32.548523%, 31.759644%, 83.918762%)" offset="0.875"/><stop stop-opacity="1" stop-color="rgb(32.548523%, 31.759644%, 83.918762%)" offset="1"/></linearGradient></defs><rect x="-22.8" width="273.6" fill="#ffffff" y="-22.8" height="273.599994" fill-opacity="1"/><rect x="-22.8" width="273.6" fill="#ffffff" y="-22.8" height="273.599994" fill-opacity="1"/><g clip-path="url(#da020ba356)"><g clip-path="url(#bfbd63c1e5)"><path fill="url(#8ac0ae75f5)" d="M 1.929688 1.929688 L 1.929688 226.179688 L 226.179688 226.179688 L 226.179688 1.929688 Z M 1.929688 1.929688 " fill-rule="nonzero"/></g></g><path fill="#ffffff" d="M 144.140625 181.722656 L 84.363281 181.722656 C 63.640625 181.722656 46.777344 164.863281 46.777344 144.140625 L 46.777344 84.363281 C 46.777344 63.640625 63.640625 46.777344 84.363281 46.777344 L 144.140625 46.777344 C 164.863281 46.777344 181.722656 63.640625 181.722656 84.363281 L 181.722656 144.140625 C 181.722656 164.863281 164.863281 181.722656 144.140625 181.722656 Z M 84.363281 55.914062 C 68.675781 55.914062 55.914062 68.675781 55.914062 84.363281 L 55.914062 144.140625 C 55.914062 159.824219 68.675781 172.585938 84.363281 172.585938 L 144.140625 172.585938 C 159.824219 172.585938 172.585938 159.824219 172.585938 144.140625 L 172.585938 84.363281 C 172.585938 68.675781 159.824219 55.914062 144.140625 55.914062 Z M 84.363281 55.914062 " fill-opacity="1" fill-rule="nonzero"/><path fill="#ffffff" d="M 114.253906 147.675781 C 95.824219 147.675781 80.832031 132.683594 80.832031 114.253906 C 80.832031 95.824219 95.824219 80.832031 114.253906 80.832031 C 132.683594 80.832031 147.675781 95.824219 147.675781 114.253906 C 147.675781 132.683594 132.683594 147.675781 114.253906 147.675781 Z M 114.253906 89.964844 C 100.859375 89.964844 89.964844 100.859375 89.964844 114.25 C 89.964844 127.644531 100.863281 138.539062 114.253906 138.539062 C 127.644531 138.539062 138.539062 127.644531 138.539062 114.25 C 138.539062 100.859375 127.644531 89.964844 114.253906 89.964844 Z M 114.253906 89.964844 " fill-opacity="1" fill-rule="nonzero"/></svg>