<svg xmlns="http://www.w3.org/2000/svg" xmlns:xlink="http://www.w3.org/1999/xlink" width="304" zoomAndPan="magnify" viewBox="0 0 228 227.999995" height="304" preserveAspectRatio="xMidYMid meet" version="1.0"><defs><clipPath id="3f6952d26f"><path d="M 4.535156 9 L 223.535156 9 L 223.535156 205.210938 L 4.535156 205.210938 Z M 4.535156 9 " clip-rule="nonzero"/></clipPath></defs><rect x="-22.8" width="273.6" fill="#ffffff" y="-22.8" height="273.599994" fill-opacity="1"/><rect x="-22.8" width="273.6" fill="#f3f4f6" y="-22.8" height="273.599994" fill-opacity="1"/><g clip-path="url(#3f6952d26f)"><path fill="#000000" d="M 221.578125 100.816406 L 127.984375 11.195312 C 125.886719 9.148438 122.714844 8.613281 120.035156 9.734375 C 117.351562 10.902344 115.59375 13.535156 115.59375 16.460938 L 115.59375 58.445312 C 49.949219 64.78125 4.734375 114.273438 4.734375 181.023438 C 4.734375 187.121094 5.125 193.019531 5.957031 198.96875 C 6.394531 201.992188 8.636719 204.429688 11.613281 205.113281 C 12.148438 205.210938 12.636719 205.308594 13.171875 205.308594 C 15.613281 205.308594 17.953125 204.085938 19.320312 201.941406 C 39.460938 170.640625 68.480469 156.058594 110.621094 156.058594 C 112.277344 156.058594 113.9375 156.058594 115.546875 156.15625 L 115.546875 195.75 C 115.546875 198.675781 117.300781 201.308594 119.984375 202.480469 C 122.667969 203.648438 125.789062 203.0625 127.933594 201.015625 L 221.527344 111.394531 C 222.941406 110.03125 223.773438 108.128906 223.773438 106.128906 C 223.773438 104.132812 222.941406 102.230469 221.527344 100.863281 Z M 130.226562 178.585938 L 130.226562 149.28125 C 130.226562 145.527344 127.347656 142.359375 123.640625 142.015625 C 119.449219 141.628906 115.058594 141.382812 110.667969 141.382812 C 71.554688 141.382812 41.511719 153.328125 19.417969 177.757812 C 20.832031 117.636719 62.238281 75.507812 123.300781 72.535156 C 127.203125 72.339844 130.277344 69.121094 130.277344 65.222656 L 130.277344 33.578125 L 205.96875 106.082031 L 130.277344 178.585938 Z M 130.226562 178.585938 " fill-opacity="1" fill-rule="nonzero"/></g></svg>