<svg xmlns="http://www.w3.org/2000/svg" xmlns:xlink="http://www.w3.org/1999/xlink" width="304" zoomAndPan="magnify" viewBox="0 0 228 227.999995" height="304" preserveAspectRatio="xMidYMid meet" version="1.0"><defs><clipPath id="f67be4eb0d"><path d="M 3.5 8 L 224 8 L 224 217.875 L 3.5 217.875 Z M 3.5 8 " clip-rule="nonzero"/></clipPath></defs><rect x="-22.8" width="273.6" fill="#ffffff" y="-22.8" height="273.599994" fill-opacity="1"/><rect x="-22.8" width="273.6" fill="#ffffff" y="-22.8" height="273.599994" fill-opacity="1"/><g clip-path="url(#f67be4eb0d)"><path fill="#000000" d="M 131.6875 166.667969 C 132.886719 167.214844 134.304688 167.011719 135.300781 166.140625 L 222.816406 90.101562 C 223.558594 89.457031 223.980469 88.527344 223.980469 87.546875 C 223.980469 86.5625 223.558594 85.632812 222.816406 84.992188 L 135.300781 8.957031 C 134.304688 8.085938 132.886719 7.882812 131.6875 8.429688 C 130.480469 8.980469 129.710938 10.183594 129.710938 11.507812 L 129.710938 56.925781 C 59.847656 59.109375 3.566406 128.953125 3.566406 214.484375 C 3.566406 216.0625 4.65625 217.429688 6.199219 217.78125 C 6.449219 217.835938 6.699219 217.867188 6.949219 217.867188 C 8.222656 217.867188 9.421875 217.140625 9.992188 215.945312 C 43.871094 145.25 75.484375 119.273438 129.710938 118.253906 L 129.710938 163.589844 C 129.707031 164.914062 130.480469 166.117188 131.6875 166.667969 Z M 10.976562 198.867188 C 17.359375 123 69.6875 63.644531 133.085938 63.644531 C 134.953125 63.644531 136.464844 62.128906 136.464844 60.257812 L 136.464844 18.925781 L 215.445312 87.550781 L 136.464844 156.171875 L 136.464844 114.839844 C 136.464844 112.96875 134.953125 111.457031 133.085938 111.457031 C 78.292969 111.460938 44.140625 135.449219 10.976562 198.867188 Z M 10.976562 198.867188 " fill-opacity="1" fill-rule="nonzero"/></g></svg>