<svg xmlns="http://www.w3.org/2000/svg" xmlns:xlink="http://www.w3.org/1999/xlink" width="304" zoomAndPan="magnify" viewBox="0 0 228 227.999995" height="304" preserveAspectRatio="xMidYMid meet" version="1.0"><defs><clipPath id="8880ab1d76"><path d="M 4 3.292969 L 224 3.292969 L 224 224 L 4 224 Z M 4 3.292969 " clip-rule="nonzero"/></clipPath></defs><rect x="-22.8" width="273.6" fill="#ffffff" y="-22.8" height="273.599994" fill-opacity="1"/><rect x="-22.8" width="273.6" fill="#ffffff" y="-22.8" height="273.599994" fill-opacity="1"/><g clip-path="url(#8880ab1d76)"><path fill="#1ba553" d="M 113.746094 3.496094 C 52.519531 3.703125 3.589844 53.527344 4.386719 114.800781 C 4.460938 120.972656 5.050781 127.089844 6.15625 133.15625 C 7.265625 139.226562 8.871094 145.15625 10.980469 150.953125 C 13.089844 156.75 15.671875 162.324219 18.726562 167.683594 C 21.777344 173.042969 25.257812 178.105469 29.167969 182.875 C 29.78125 183.632812 30.273438 184.460938 30.640625 185.367188 C 31.007812 186.269531 31.234375 187.207031 31.320312 188.179688 C 31.402344 189.152344 31.34375 190.117188 31.140625 191.070312 C 30.933594 192.023438 30.59375 192.925781 30.117188 193.777344 L 20.664062 210.734375 C 18.042969 215.433594 22.316406 220.992188 27.527344 219.664062 L 59.546875 211.503906 C 60.664062 211.222656 61.792969 211.136719 62.941406 211.253906 C 64.085938 211.375 65.175781 211.683594 66.214844 212.1875 C 73.292969 215.632812 80.660156 218.277344 88.3125 220.125 C 95.960938 221.976562 103.722656 222.984375 111.59375 223.152344 C 173.148438 224.546875 223.671875 175.316406 223.863281 113.6875 C 224.054688 52.738281 174.644531 3.289062 113.746094 3.496094 Z M 114.121094 209.648438 C 112.546875 209.648438 110.972656 209.609375 109.402344 209.53125 C 107.828125 209.453125 106.257812 209.335938 104.691406 209.183594 C 103.125 209.027344 101.5625 208.835938 100.003906 208.605469 C 98.445312 208.375 96.894531 208.105469 95.351562 207.796875 C 93.804688 207.488281 92.269531 207.144531 90.742188 206.761719 C 89.214844 206.378906 87.699219 205.957031 86.191406 205.5 C 84.683594 205.042969 83.1875 204.546875 81.707031 204.015625 C 80.222656 203.484375 78.753906 202.917969 77.300781 202.316406 C 75.84375 201.714844 74.40625 201.074219 72.984375 200.402344 C 71.558594 199.726562 70.152344 199.019531 68.765625 198.273438 C 67.375 197.53125 66.003906 196.753906 64.65625 195.945312 C 63.304688 195.136719 61.972656 194.292969 60.664062 193.417969 C 59.355469 192.539062 58.070312 191.632812 56.804688 190.695312 C 55.539062 189.753906 54.296875 188.785156 53.082031 187.785156 C 51.863281 186.785156 50.671875 185.757812 49.503906 184.699219 C 48.335938 183.640625 47.199219 182.554688 46.082031 181.4375 C 44.96875 180.324219 43.886719 179.183594 42.828125 178.015625 C 41.769531 176.847656 40.742188 175.65625 39.742188 174.4375 C 38.742188 173.21875 37.773438 171.976562 36.835938 170.710938 C 35.898438 169.445312 34.992188 168.15625 34.117188 166.84375 C 33.242188 165.535156 32.398438 164.203125 31.589844 162.851562 C 30.78125 161.5 30.003906 160.128906 29.261719 158.738281 C 28.519531 157.347656 27.8125 155.941406 27.140625 154.515625 C 26.464844 153.089844 25.828125 151.652344 25.226562 150.195312 C 24.621094 148.738281 24.054688 147.269531 23.527344 145.785156 C 22.996094 144.300781 22.5 142.804688 22.042969 141.296875 C 21.585938 139.789062 21.167969 138.269531 20.785156 136.738281 C 20.402344 135.210938 20.058594 133.671875 19.75 132.128906 C 19.441406 130.582031 19.171875 129.03125 18.941406 127.46875 C 18.710938 125.910156 18.519531 124.347656 18.363281 122.777344 C 18.210938 121.210938 18.09375 119.636719 18.015625 118.0625 C 17.941406 116.488281 17.902344 114.914062 17.902344 113.339844 C 17.902344 60.148438 60.980469 17.03125 114.121094 17.03125 C 167.058594 17.03125 210.007812 59.816406 210.339844 112.71875 C 210.675781 165.800781 167.160156 209.648438 114.121094 209.648438 Z M 114.121094 209.648438 " fill-opacity="1" fill-rule="nonzero"/></g><path fill="#ffffff" d="M 210.34375 113.339844 C 210.34375 114.914062 210.304688 116.488281 210.226562 118.0625 C 210.148438 119.636719 210.035156 121.210938 209.878906 122.777344 C 209.726562 124.347656 209.53125 125.910156 209.300781 127.46875 C 209.070312 129.027344 208.800781 130.582031 208.492188 132.128906 C 208.1875 133.671875 207.84375 135.210938 207.460938 136.738281 C 207.078125 138.269531 206.65625 139.785156 206.199219 141.296875 C 205.742188 142.804688 205.25 144.300781 204.71875 145.785156 C 204.1875 147.269531 203.621094 148.738281 203.019531 150.195312 C 202.414062 151.648438 201.777344 153.089844 201.105469 154.515625 C 200.429688 155.941406 199.722656 157.347656 198.980469 158.738281 C 198.238281 160.128906 197.464844 161.5 196.652344 162.851562 C 195.84375 164.203125 195 165.535156 194.125 166.84375 C 193.25 168.15625 192.34375 169.441406 191.40625 170.710938 C 190.46875 171.976562 189.5 173.21875 188.5 174.4375 C 187.503906 175.652344 186.472656 176.847656 185.417969 178.015625 C 184.359375 179.183594 183.273438 180.324219 182.160156 181.4375 C 181.046875 182.554688 179.90625 183.640625 178.738281 184.699219 C 177.574219 185.757812 176.382812 186.785156 175.164062 187.785156 C 173.945312 188.785156 172.707031 189.753906 171.441406 190.695312 C 170.175781 191.632812 168.890625 192.539062 167.578125 193.414062 C 166.269531 194.292969 164.941406 195.132812 163.589844 195.945312 C 162.238281 196.753906 160.867188 197.53125 159.480469 198.273438 C 158.089844 199.015625 156.683594 199.726562 155.261719 200.398438 C 153.839844 201.074219 152.398438 201.710938 150.945312 202.316406 C 149.488281 202.917969 148.019531 203.484375 146.539062 204.015625 C 145.054688 204.546875 143.558594 205.042969 142.054688 205.5 C 140.546875 205.957031 139.03125 206.378906 137.5 206.761719 C 135.972656 207.144531 134.4375 207.488281 132.894531 207.796875 C 131.347656 208.101562 129.796875 208.371094 128.242188 208.605469 C 126.683594 208.835938 125.121094 209.027344 123.554688 209.183594 C 121.984375 209.335938 120.417969 209.453125 118.84375 209.53125 C 117.269531 209.609375 115.695312 209.648438 114.121094 209.648438 C 112.546875 209.648438 110.972656 209.609375 109.402344 209.53125 C 107.828125 209.453125 106.257812 209.335938 104.691406 209.183594 C 103.125 209.027344 101.5625 208.835938 100.003906 208.605469 C 98.445312 208.371094 96.894531 208.101562 95.351562 207.796875 C 93.804688 207.488281 92.269531 207.144531 90.742188 206.761719 C 89.214844 206.378906 87.699219 205.957031 86.191406 205.5 C 84.683594 205.042969 83.1875 204.546875 81.707031 204.015625 C 80.222656 203.484375 78.753906 202.917969 77.300781 202.316406 C 75.84375 201.710938 74.40625 201.074219 72.980469 200.398438 C 71.558594 199.726562 70.152344 199.015625 68.765625 198.273438 C 67.375 197.53125 66.003906 196.753906 64.65625 195.945312 C 63.304688 195.132812 61.972656 194.292969 60.664062 193.414062 C 59.355469 192.539062 58.066406 191.632812 56.804688 190.695312 C 55.539062 189.753906 54.296875 188.785156 53.082031 187.785156 C 51.863281 186.785156 50.671875 185.757812 49.503906 184.699219 C 48.335938 183.640625 47.195312 182.554688 46.082031 181.4375 C 44.96875 180.324219 43.882812 179.183594 42.828125 178.015625 C 41.769531 176.847656 40.742188 175.652344 39.742188 174.4375 C 38.742188 173.21875 37.773438 171.976562 36.835938 170.710938 C 35.898438 169.441406 34.992188 168.15625 34.117188 166.84375 C 33.242188 165.535156 32.398438 164.203125 31.589844 162.851562 C 30.78125 161.5 30.003906 160.128906 29.261719 158.738281 C 28.519531 157.347656 27.8125 155.941406 27.140625 154.515625 C 26.464844 153.089844 25.828125 151.648438 25.226562 150.195312 C 24.621094 148.738281 24.054688 147.269531 23.527344 145.785156 C 22.996094 144.300781 22.5 142.804688 22.042969 141.296875 C 21.585938 139.785156 21.167969 138.269531 20.785156 136.738281 C 20.402344 135.210938 20.058594 133.671875 19.75 132.128906 C 19.441406 130.582031 19.171875 129.027344 18.941406 127.46875 C 18.710938 125.910156 18.519531 124.347656 18.363281 122.777344 C 18.210938 121.210938 18.09375 119.636719 18.015625 118.0625 C 17.941406 116.488281 17.902344 114.914062 17.902344 113.339844 C 17.902344 111.761719 17.941406 110.1875 18.015625 108.613281 C 18.09375 107.039062 18.210938 105.46875 18.363281 103.898438 C 18.519531 102.332031 18.710938 100.765625 18.941406 99.207031 C 19.171875 97.648438 19.441406 96.09375 19.75 94.550781 C 20.058594 93.003906 20.402344 91.464844 20.785156 89.9375 C 21.167969 88.410156 21.585938 86.890625 22.042969 85.382812 C 22.5 83.875 22.996094 82.378906 23.527344 80.894531 C 24.054688 79.410156 24.621094 77.9375 25.226562 76.484375 C 25.828125 75.027344 26.464844 73.585938 27.140625 72.160156 C 27.8125 70.738281 28.519531 69.328125 29.261719 67.9375 C 30.003906 66.550781 30.78125 65.179688 31.589844 63.828125 C 32.398438 62.472656 33.242188 61.144531 34.117188 59.832031 C 34.992188 58.523438 35.898438 57.234375 36.835938 55.96875 C 37.773438 54.703125 38.742188 53.460938 39.742188 52.242188 C 40.742188 51.023438 41.769531 49.828125 42.828125 48.664062 C 43.882812 47.496094 44.96875 46.351562 46.082031 45.238281 C 47.195312 44.125 48.335938 43.039062 49.503906 41.980469 C 50.671875 40.921875 51.863281 39.890625 53.082031 38.890625 C 54.296875 37.890625 55.539062 36.921875 56.804688 35.984375 C 58.066406 35.042969 59.355469 34.136719 60.664062 33.261719 C 61.972656 32.386719 63.304688 31.542969 64.65625 30.734375 C 66.003906 29.921875 67.375 29.144531 68.765625 28.402344 C 70.152344 27.660156 71.558594 26.949219 72.980469 26.277344 C 74.40625 25.601562 75.84375 24.964844 77.300781 24.363281 C 78.753906 23.757812 80.222656 23.191406 81.707031 22.660156 C 83.1875 22.128906 84.683594 21.636719 86.191406 21.175781 C 87.699219 20.71875 89.214844 20.300781 90.742188 19.917969 C 92.269531 19.535156 93.804688 19.1875 95.351562 18.882812 C 96.894531 18.574219 98.445312 18.304688 100.003906 18.074219 C 101.5625 17.839844 103.125 17.648438 104.691406 17.496094 C 106.257812 17.339844 107.828125 17.222656 109.402344 17.148438 C 110.972656 17.070312 112.546875 17.03125 114.121094 17.03125 C 115.695312 17.03125 117.269531 17.070312 118.84375 17.148438 C 120.417969 17.222656 121.984375 17.339844 123.554688 17.496094 C 125.121094 17.648438 126.683594 17.839844 128.242188 18.074219 C 129.796875 18.304688 131.347656 18.574219 132.894531 18.882812 C 134.4375 19.1875 135.972656 19.535156 137.5 19.917969 C 139.03125 20.300781 140.546875 20.71875 142.054688 21.175781 C 143.558594 21.636719 145.054688 22.128906 146.539062 22.660156 C 148.019531 23.191406 149.488281 23.757812 150.945312 24.363281 C 152.398438 24.964844 153.839844 25.601562 155.261719 26.277344 C 156.683594 26.949219 158.089844 27.660156 159.480469 28.402344 C 160.867188 29.144531 162.238281 29.921875 163.589844 30.734375 C 164.941406 31.542969 166.269531 32.386719 167.578125 33.261719 C 168.890625 34.136719 170.175781 35.042969 171.441406 35.984375 C 172.707031 36.921875 173.945312 37.890625 175.164062 38.890625 C 176.382812 39.890625 177.574219 40.921875 178.738281 41.980469 C 179.90625 43.039062 181.046875 44.125 182.160156 45.238281 C 183.273438 46.351562 184.359375 47.496094 185.417969 48.664062 C 186.472656 49.828125 187.503906 51.023438 188.5 52.242188 C 189.5 53.460938 190.46875 54.703125 191.40625 55.96875 C 192.34375 57.234375 193.25 58.523438 194.125 59.832031 C 195 61.144531 195.84375 62.472656 196.652344 63.828125 C 197.464844 65.179688 198.238281 66.550781 198.980469 67.9375 C 199.722656 69.328125 200.429688 70.738281 201.105469 72.160156 C 201.777344 73.585938 202.414062 75.027344 203.019531 76.484375 C 203.621094 77.9375 204.1875 79.410156 204.71875 80.894531 C 205.25 82.378906 205.742188 83.875 206.199219 85.382812 C 206.65625 86.890625 207.078125 88.410156 207.460938 89.9375 C 207.84375 91.464844 208.1875 93.003906 208.492188 94.550781 C 208.800781 96.09375 209.070312 97.648438 209.300781 99.207031 C 209.53125 100.765625 209.726562 102.332031 209.878906 103.898438 C 210.035156 105.46875 210.148438 107.039062 210.226562 108.613281 C 210.304688 110.1875 210.34375 111.761719 210.34375 113.339844 Z M 210.34375 113.339844 " fill-opacity="1" fill-rule="nonzero"/><path fill="#1ba553" d="M 96.925781 66.515625 L 96.96875 66.605469 L 102.707031 77.996094 C 103.015625 78.609375 103.273438 79.242188 103.480469 79.898438 C 103.6875 80.550781 103.839844 81.21875 103.9375 81.898438 C 104.039062 82.578125 104.082031 83.257812 104.070312 83.945312 C 104.058594 84.632812 103.992188 85.3125 103.875 85.988281 C 103.753906 86.664062 103.578125 87.324219 103.351562 87.972656 C 103.125 88.617188 102.847656 89.242188 102.519531 89.847656 C 102.191406 90.449219 101.816406 91.019531 101.394531 91.5625 C 100.976562 92.105469 100.515625 92.609375 100.011719 93.078125 C 99.511719 93.542969 99.054688 94.042969 98.632812 94.578125 C 98.214844 95.117188 97.839844 95.6875 97.511719 96.285156 C 97.183594 96.882812 96.90625 97.503906 96.679688 98.144531 C 96.449219 98.789062 96.273438 99.445312 96.152344 100.117188 C 96.03125 100.785156 95.960938 101.464844 95.945312 102.144531 C 95.933594 102.828125 95.972656 103.503906 96.066406 104.179688 C 96.164062 104.855469 96.3125 105.519531 96.511719 106.171875 C 96.714844 106.824219 96.964844 107.457031 97.269531 108.066406 C 100.714844 114.992188 106.683594 124.535156 115.789062 131.421875 C 116.8125 132.195312 117.925781 132.804688 119.128906 133.246094 C 120.332031 133.6875 121.574219 133.941406 122.851562 134.007812 C 124.132812 134.074219 125.394531 133.953125 126.636719 133.640625 C 127.882812 133.328125 129.050781 132.835938 130.148438 132.171875 L 133.84375 129.921875 C 134.671875 129.417969 135.546875 129.011719 136.46875 128.707031 C 137.390625 128.402344 138.332031 128.207031 139.296875 128.117188 C 140.265625 128.027344 141.230469 128.046875 142.191406 128.179688 C 143.152344 128.308594 144.085938 128.546875 144.992188 128.894531 L 159.683594 134.484375 C 160.464844 134.78125 161.210938 135.152344 161.917969 135.597656 C 162.628906 136.042969 163.289062 136.550781 163.898438 137.125 C 164.503906 137.699219 165.050781 138.328125 165.539062 139.011719 C 166.023438 139.695312 166.4375 140.417969 166.78125 141.179688 C 167.121094 141.945312 167.386719 142.734375 167.574219 143.550781 C 167.761719 144.367188 167.867188 145.195312 167.894531 146.03125 C 167.917969 146.871094 167.859375 147.703125 167.722656 148.527344 C 167.582031 149.351562 167.363281 150.15625 167.066406 150.941406 C 166.894531 151.390625 166.699219 151.828125 166.480469 152.253906 L 162.410156 160.152344 C 162.078125 160.792969 161.699219 161.398438 161.265625 161.972656 C 160.835938 162.546875 160.355469 163.082031 159.835938 163.574219 C 159.3125 164.066406 158.753906 164.515625 158.15625 164.914062 C 157.558594 165.3125 156.933594 165.65625 156.277344 165.949219 C 155.621094 166.246094 154.945312 166.480469 154.25 166.660156 C 153.554688 166.835938 152.847656 166.957031 152.132812 167.015625 C 151.417969 167.074219 150.699219 167.074219 149.984375 167.011719 C 149.269531 166.953125 148.5625 166.828125 147.867188 166.648438 C 124.796875 160.675781 69.808594 139.90625 65.378906 77.109375 C 65.292969 75.863281 65.382812 74.628906 65.65625 73.410156 C 65.929688 72.191406 66.375 71.035156 66.988281 69.949219 C 67.597656 68.859375 68.355469 67.882812 69.253906 67.015625 C 70.152344 66.148438 71.15625 65.429688 72.265625 64.855469 L 79.761719 61.003906 C 80.503906 60.621094 81.277344 60.316406 82.082031 60.085938 C 82.886719 59.855469 83.707031 59.703125 84.542969 59.636719 C 85.375 59.566406 86.207031 59.578125 87.039062 59.675781 C 87.871094 59.769531 88.6875 59.945312 89.484375 60.203125 C 90.28125 60.457031 91.042969 60.789062 91.777344 61.195312 C 92.507812 61.601562 93.191406 62.078125 93.832031 62.617188 C 94.46875 63.160156 95.050781 63.757812 95.570312 64.414062 C 96.089844 65.070312 96.542969 65.773438 96.925781 66.515625 Z M 96.925781 66.515625 " fill-opacity="1" fill-rule="nonzero"/></svg>